<svg xmlns="http://www.w3.org/2000/svg" width="1200" height="630" viewBox="0 0 1200 630"><rect width="1200" height="630" fill="#f2f3ea"/><path d="M790 0h410v630H790z" fill="#18372b"/><g fill="none" stroke="#9eaa9a" opacity=".45"><path d="M720 80c160-90 335 42 505-18M710 210c170-72 300 50 520-6M730 410c170-82 320 65 500-8M730 545c170-60 320 45 500-12"/></g><g fill="#4f7c46"><circle cx="850" cy="125" r="15"/><circle cx="920" cy="165" r="15"/><circle cx="1000" cy="110" r="15"/><circle cx="1080" cy="180" r="15"/><circle cx="835" cy="260" r="15"/><circle cx="930" cy="300" r="15"/><circle cx="1040" cy="270" r="15"/><circle cx="1110" cy="340" r="15"/><circle cx="850" cy="425" r="15"/><circle cx="955" cy="460" r="15"/><circle cx="1060" cy="430" r="15"/></g><g font-family="Arial,sans-serif" fill="#18372b"><text x="78" y="100" font-size="19" font-weight="700">RAMNARAYAN KOTAGIRI</text><text x="78" y="265" font-size="76" font-weight="700">Software engineering</text><text x="78" y="345" font-size="76" font-weight="700">for living landscapes.</text><text x="78" y="435" font-size="26" fill="#637068">Full-stack · Mobile · Agricultural digital twins</text><text x="78" y="535" font-size="17" fill="#4f7c46">THE LIVING PLANTATION TWIN</text></g></svg>
